Patient4_TMGait_0pt8_01_left_16_GRF.mot
version=1
nRows=78
nColumns=19
inDegrees=no
endheader
time	F1x	F1y	F1z	M1x	M1y	M1z	F2x	F2y	F2z	M2x	M2y	M2z	EC1x	EC1y	EC1z	EC2x	EC2y	EC2z
17.12	-3.6242	0.55109	-5.2678	-0.027364	4.3322	6.9856	-42.9685	682.547	-52.9	275.7683	79.2753	805.6636	-0.0592	0.0182	-0.0073	-0.0462	0.0165	0.9585
17.1314	-2.7689	0.88198	-3.5249	-0.20435	2.717	5.3181	-38.7198	685.3688	-53.4485	276.6166	77.7523	804.6398	-0.0592	0.0182	-0.0073	-0.0462	0.0165	0.9585
17.1427	-2.0343	1.1498	-2.0302	-0.35322	1.3466	3.9123	-34.4916	688.7222	-53.7959	277.5652	75.9101	803.6149	-0.0592	0.0182	-0.0073	-0.0462	0.0165	0.9585
17.1541	-1.4554	1.3516	-0.88285	-0.46738	0.30951	2.8505	-30.4285	692.8647	-53.8812	278.7267	73.7927	803.0456	-0.0592	0.0182	-0.0073	-0.0462	0.0165	0.9585
17.1654	-1.0578	1.5284	-0.087461	-0.55649	-0.40295	2.1856	-26.5497	698.0901	-53.7569	280.2412	71.4989	803.3886	-0.0592	0.0182	-0.0073	-0.0462	0.0165	0.9585
17.1768	-0.80789	1.6772	0.40188	-0.62196	-0.83658	1.8431	-22.7878	704.6166	-53.4814	282.2263	69.0923	804.959	-0.0592	0.0182	-0.0073	-0.0462	0.0165	0.9585
17.1881	-0.6961	1.811	0.66476	-0.67086	-1.0743	1.7505	-19.0425	712.5159	-53.1734	284.7361	66.6709	807.8625	-0.0592	0.0182	-0.0073	-0.0462	0.0165	0.9585
17.1995	-0.68605	1.895	0.77073	-0.69816	-1.18	1.7699	-15.227	721.6768	-52.9304	287.7509	64.3114	811.9768	-0.0592	0.0182	-0.0073	-0.0462	0.0165	0.9585
17.2109	-0.7652	1.9002	0.79212	-0.69292	-1.2296	1.792	-11.2769	731.8618	-52.8405	291.1898	62.0858	817.0344	-0.0592	0.0182	-0.0073	-0.0462	0.0165	0.9585
17.2222	-0.91333	1.7565	0.78395	-0.62978	-1.2782	1.6638	-7.1883	742.6832	-52.9765	294.9054	60.064	822.6095	-0.0592	0.0182	-0.0073	-0.0462	0.0165	0.9585
17.2336	-1.1132	1.4079	0.78569	-0.48714	-1.3663	1.2769	-2.9901	753.6376	-53.3695	298.6982	58.2896	828.1846	-0.0592	0.0182	-0.0073	-0.0462	0.0165	0.9585
17.2449	-1.3492	0.77541	0.82595	-0.23787	-1.5199	0.50674	1.2544	764.1428	-54.0329	302.3289	56.7978	833.1813	-0.0592	0.0182	-0.0073	-0.0462	0.0165	0.9585
17.2563	-1.5929	-0.20295	0.90952	0.13878	-1.7369	-0.73938	5.483	773.531	-54.9285	305.525	55.5673	836.9332	-0.0592	0.0182	-0.0073	-0.0462	0.0165	0.9585
17.2676	-1.7933	-1.5519	1.0355	0.65007	-1.9912	-2.5005	9.6335	781.0982	-56.0287	307.9973	54.5815	838.7576	-0.0592	0.0182	-0.0073	-0.0462	0.0165	0.9585
17.279	-1.8595	-3.239	1.173	1.2785	-2.2038	-4.7339	13.6542	786.1523	-57.2756	309.4643	53.7952	837.981	-0.0592	0.0182	-0.0073	-0.0462	0.0165	0.9585
17.2904	-1.6559	-5.0895	1.272	1.9579	-2.2537	-7.1964	17.4671	788.1701	-58.6185	309.7143	53.1829	834.115	-0.0592	0.0182	-0.0073	-0.0462	0.0165	0.9585
17.3017	-0.99723	-6.7433	1.2405	2.554	-1.9515	-9.4129	21.0098	786.9563	-59.9808	308.6741	52.6979	827.0185	-0.0592	0.0182	-0.0073	-0.0462	0.0165	0.9585
17.3131	0.33754	-7.5782	0.95033	2.8378	-1.0518	-10.5654	24.2078	782.7359	-61.2789	306.443	52.2931	816.9852	-0.0592	0.0182	-0.0073	-0.0462	0.0165	0.9585
17.3244	2.589	-6.6692	0.26068	2.4644	0.71833	-9.4448	27.0394	776.1368	-62.4297	303.282	51.9051	804.7072	-0.0592	0.0182	-0.0073	-0.0462	0.0165	0.9585
17.3358	5.9455	-2.7606	-1.0015	0.96579	3.6487	-4.4063	29.5294	768.0437	-63.3455	299.5546	51.4452	791.134	-0.0592	0.0182	-0.0073	-0.0462	0.0165	0.9585
17.3471	10.4866	5.7038	-2.9861	-2.2345	7.9628	6.5654	31.7812	759.3409	-63.9584	295.6269	50.81	777.1673	-0.0592	0.0182	-0.0073	-0.0462	0.0165	0.9585
17.3585	16.034	20.4019	-5.8053	-7.7588	13.7294	25.6669	33.9582	750.6621	-64.221	291.7628	49.8905	763.453	-0.0592	0.0182	-0.0073	-0.0462	0.0165	0.9585
17.3699	21.9921	42.8361	-9.427	-16.159	20.6744	54.8616	36.258	742.1265	-64.1152	288.0221	48.5877	750.097	-0.0592	0.0182	-0.0073	-0.0462	0.0165	0.9585
17.3812	27.143	73.7621	-13.595	-27.7069	27.9865	95.1584	38.859	733.315	-63.6069	284.251	46.7932	736.6699	-0.0592	0.0182	-0.0073	-0.0462	0.0165	0.9585
17.3926	29.5292	112.4838	-17.6619	-42.1311	34.1031	145.6934	41.8534	723.3247	-62.6283	280.1075	44.4003	722.2677	-0.0592	0.0182	-0.0073	-0.0462	0.0165	0.9585
17.4039	27.2729	156.8585	-20.6911	-58.6028	37.1468	203.7654	45.1925	710.8921	-61.0504	275.1079	41.3007	705.6565	-0.0592	0.0182	-0.0073	-0.0462	0.0165	0.9585
17.4153	20.1623	203.8314	-21.6188	-75.9219	35.6187	265.4401	48.7169	694.5989	-58.7329	268.7019	37.4271	685.479	-0.0592	0.0182	-0.0073	-0.0462	0.0165	0.9585
17.4266	10.0629	249.581	-19.2224	-92.6011	28.6684	325.6476	52.163	673.0997	-55.5791	260.3633	32.8001	660.4877	-0.0592	0.0182	-0.0073	-0.0462	0.0165	0.9585
17.438	-0.8749	290.1947	-13.3752	-107.2211	16.969	378.972	55.2151	645.2758	-51.607	249.648	27.5718	629.6715	-0.0592	0.0182	-0.0073	-0.0462	0.0165	0.9585
17.4494	-11.1069	324.2156	-5.2169	-119.3132	2.6208	423.2072	57.5239	610.4218	-46.9178	236.2629	21.9905	592.4545	-0.0592	0.0182	-0.0073	-0.0462	0.0165	0.9585
17.4607	-20.0402	353.2961	3.5539	-129.5674	-11.9427	460.3938	58.7451	568.4074	-41.6904	220.1316	16.3767	548.8365	-0.0592	0.0182	-0.0073	-0.0462	0.0165	0.9585
17.4721	-27.5955	380.3446	11.6257	-139.13	-25.0121	494.3179	58.5628	519.7457	-36.1408	201.4238	11.0679	499.4152	-0.0592	0.0182	-0.0073	-0.0462	0.0165	0.9585
17.4834	-33.9635	408.0612	18.2266	-149.0361	-35.6408	528.5316	56.7485	465.5014	-30.4964	180.5299	6.3727	445.2754	-0.0592	0.0182	-0.0073	-0.0462	0.0165	0.9585
17.4948	-39.2074	438.1313	22.8001	-159.9249	-43.1986	565.1621	53.1422	407.2505	-24.9365	158.0482	2.5186	387.965	-0.0592	0.0182	-0.0073	-0.0462	0.0165	0.9585
17.5061	-43.3169	471.1342	25.5612	-171.9792	-47.944	604.9443	47.7785	346.9866	-19.6465	134.749	-0.33272	329.3692	-0.0592	0.0182	-0.0073	-0.0462	0.0165	0.9585
17.5175	-46.2713	506.9536	26.9734	-185.0914	-50.5118	647.6946	40.8978	287.0738	-14.8286	111.5472	-2.1014	271.6923	-0.0592	0.0182	-0.0073	-0.0462	0.0165	0.9585
17.5289	-48.1292	544.9551	27.9274	-198.9375	-52.0544	692.6594	33.0579	229.9752	-10.6808	89.4	-2.841	217.1681	-0.0592	0.0182	-0.0073	-0.0462	0.0165	0.9585
17.5402	-49.0655	584.1936	29.2727	-213.0847	-53.7123	738.6805	24.9878	177.888	-7.3253	69.1655	-2.7523	167.7555	-0.0592	0.0182	-0.0073	-0.0462	0.0165	0.9585
17.5516	-49.3649	623.4074	31.6077	-227.0134	-56.3499	784.2371	17.4797	132.3637	-4.743	51.4593	-2.1799	124.7754	-0.0592	0.0182	-0.0073	-0.0462	0.0165	0.9585
17.5629	-49.3022	661.2685	35.2869	-240.2124	-60.4792	827.7194	11.1097	94.17	-2.8374	36.5907	-1.4489	88.8449	-0.0592	0.0182	-0.0073	-0.0462	0.0165	0.9585
17.5743	-49.0153	696.663	40.0409	-252.3002	-65.8451	867.7614	6.1685	63.3479	-1.4606	24.5908	-0.80573	59.9179	-0.0592	0.0182	-0.0073	-0.0462	0.0165	0.9585
17.5856	-48.4803	728.7726	45.3775	-263.0324	-71.8281	903.3957	2.6241	39.4992	-0.51627	15.3079	-0.32255	37.5947	-0.0592	0.0182	-0.0073	-0.0462	0.0165	0.9585
17.597	-47.6308	756.8787	50.5178	-272.2265	-77.4851	933.7389	0.30665	21.9466	0.087771	8.4831	-0.0063353	21.2136	-0.0592	0.0182	-0.0073	-0.0462	0.0165	0.9585
17.6084	-46.4022	780.1537	55.0014	-279.652	-82.2134	957.8323	-1.0448	9.9103	0.40216	3.8102	0.20348	10.0318	-0.0592	0.0182	-0.0073	-0.0462	0.0165	0.9585
17.6197	-44.7074	797.7676	58.6045	-285.0657	-85.6965	974.7139	-1.6558	2.4539	0.49827	0.92522	0.33369	3.1217	-0.0592	0.0182	-0.0073	-0.0462	0.0165	0.9585
17.6311	-42.54	809.0206	61.3502	-288.2542	-87.9388	983.63	-1.8015	-1.4935	0.47123	-0.59245	0.39878	-0.52273	-0.0592	0.0182	-0.0073	-0.0462	0.0165	0.9585
17.6424	-39.9303	813.5481	63.3575	-289.1153	-89.0721	984.245	-1.6514	-3.0126	0.36644	-1.1639	0.42718	-1.9352	-0.0592	0.0182	-0.0073	-0.0462	0.0165	0.9585
17.6538	-36.9461	811.617	64.6207	-287.7604	-89.129	976.9785	-1.3847	-3.0087	0.23528	-1.1446	0.43604	-1.9456	-0.0592	0.0182	-0.0073	-0.0462	0.0165	0.9585
17.6651	-33.6535	804.0257	65.1911	-284.4903	-88.1941	962.8714	-1.0712	-2.2174	0.095359	-0.81662	0.4399	-1.243	-0.0592	0.0182	-0.0073	-0.0462	0.0165	0.9585
17.6765	-30.1282	792.0418	65.042	-279.761	-86.2844	943.4954	-0.79445	-1.101	-0.027958	-0.36488	0.44499	-0.22393	-0.0592	0.0182	-0.0073	-0.0462	0.0165	0.9585
17.6879	-26.4392	777.093	64.3037	-274.0768	-83.5734	920.5924	-0.55793	0.012827	-0.12486	0.085267	0.44847	0.80411	-0.0592	0.0182	-0.0073	-0.0462	0.0165	0.9585
17.6992	-22.6782	760.6604	63.0781	-267.9527	-80.231	895.94	-0.38543	0.9949	-0.18852	0.47834	0.44618	1.7294	-0.0592	0.0182	-0.0073	-0.0462	0.0165	0.9585
17.7106	-18.9139	744.1316	61.5121	-261.8648	-76.4669	871.1799	-0.255	1.7655	-0.22544	0.78581	0.43666	2.4551	-0.0592	0.0182	-0.0073	-0.0462	0.0165	0.9585
17.7219	-15.2263	728.7818	59.7286	-256.2443	-72.4642	847.8192	-0.18544	2.3524	-0.23995	1.0154	0.42465	3.0327	-0.0592	0.0182	-0.0073	-0.0462	0.0165	0.9585
17.7333	-11.6433	715.6537	57.8534	-251.4376	-68.3924	827.0635	-0.13326	2.7715	-0.2385	1.1766	0.40432	3.4601	-0.0592	0.0182	-0.0073	-0.0462	0.0165	0.9585
17.7446	-8.2128	705.4724	56.0443	-247.6755	-64.4528	809.7543	-0.1163	3.0755	-0.22497	1.2894	0.38266	3.7927	-0.0592	0.0182	-0.0073	-0.0462	0.0165	0.9585
17.756	-4.936	698.5944	54.3931	-245.0608	-60.766	796.2726	-0.10162	3.3067	-0.20246	1.3716	0.3558	4.0529	-0.0592	0.0182	-0.0073	-0.0462	0.0165	0.9585
17.7674	-1.846	695.021	53.0127	-243.5701	-57.4658	786.6163	-0.11781	3.4882	-0.1819	1.4341	0.33955	4.2695	-0.0592	0.0182	-0.0073	-0.0462	0.0165	0.9585
17.7787	1.079	694.4374	51.9394	-243.0707	-54.5859	780.3944	-0.1472	3.6237	-0.16978	1.4829	0.33772	4.4243	-0.0592	0.0182	-0.0073	-0.0462	0.0165	0.9585
17.7901	3.8421	696.3051	51.2274	-243.3483	-52.172	776.9998	-0.21372	3.6976	-0.17862	1.5141	0.36942	4.5015	-0.0592	0.0182	-0.0073	-0.0462	0.0165	0.9585
17.8014	6.5057	699.942	50.9032	-244.1444	-50.2285	775.6615	-0.30749	3.6713	-0.20582	1.5144	0.4316	4.4461	-0.0592	0.0182	-0.0073	-0.0462	0.0165	0.9585
17.8128	9.1171	704.6406	50.9923	-245.1936	-48.7572	775.5865	-0.44424	3.5199	-0.2612	1.4677	0.53953	4.2364	-0.0592	0.0182	-0.0073	-0.0462	0.0165	0.9585
17.8241	11.7619	709.7479	51.5056	-246.2579	-47.7411	776.035	-0.61083	3.1586	-0.33751	1.3388	0.68776	3.753	-0.0592	0.0182	-0.0073	-0.0462	0.0165	0.9585
17.8355	14.5038	714.7747	52.42	-247.168	-47.1374	776.4589	-0.81001	2.5154	-0.44344	1.0884	0.8865	2.8945	-0.0592	0.0182	-0.0073	-0.0462	0.0165	0.9585
17.8469	17.4058	719.4412	53.6926	-247.8417	-46.8844	776.5336	-1.0177	1.4941	-0.56467	0.67004	1.1076	1.5322	-0.0592	0.0182	-0.0073	-0.0462	0.0165	0.9585
17.8582	20.5082	723.742	55.2414	-248.3019	-46.8836	776.2202	-1.2134	0.021167	-0.69225	0.044675	1.3286	-0.41236	-0.0592	0.0182	-0.0073	-0.0462	0.0165	0.9585
17.8696	23.8508	727.922	56.9699	-248.6683	-47.0196	775.736	-1.3315	-1.9462	-0.7994	-0.80726	1.4943	-2.9892	-0.0592	0.0182	-0.0073	-0.0462	0.0165	0.9585
17.8809	27.4484	732.3945	58.7446	-249.1264	-47.1439	775.467	-1.2936	-4.3496	-0.85401	-1.8605	1.5279	-6.1151	-0.0592	0.0182	-0.0073	-0.0462	0.0165	0.9585
17.8923	31.3172	737.5904	60.4353	-249.8635	-47.1079	775.8068	-0.97693	-6.9694	-0.81019	-3.0153	1.3124	-9.5067	-0.0592	0.0182	-0.0073	-0.0462	0.0165	0.9585
17.9036	35.439	743.7217	61.9517	-250.9808	-46.8118	776.9374	-0.23647	-9.3295	-0.60536	-4.057	0.70302	-12.5445	-0.0592	0.0182	-0.0073	-0.0462	0.0165	0.9585
17.915	39.7835	750.6383	63.2681	-252.441	-46.2293	778.6822	1.0882	-10.6273	-0.1663	-4.6232	-0.46451	-14.1957	-0.0592	0.0182	-0.0073	-0.0462	0.0165	0.9585
17.9264	44.3187	757.7746	64.4371	-254.0542	-45.4144	780.4678	3.1431	-9.6315	0.58938	-4.1642	-2.3569	-12.8535	-0.0592	0.0182	-0.0073	-0.0462	0.0165	0.9585
17.9377	49.0111	764.2111	65.4937	-255.5055	-44.4092	781.3997	6.0071	-4.6389	1.7409	-1.9244	-5.1019	-6.301	-0.0592	0.0182	-0.0073	-0.0462	0.0165	0.9585
17.9491	53.8501	768.7797	66.4456	-256.3928	-43.233	780.3775	9.6211	6.4922	3.3441	3.0413	-8.7255	8.2504	-0.0592	0.0182	-0.0073	-0.0462	0.0165	0.9585
17.9604	58.8136	770.1489	67.1893	-256.2661	-41.8082	776.1558	13.6837	26.1365	5.3684	11.7761	-13.0329	33.9092	-0.0592	0.0182	-0.0073	-0.0462	0.0165	0.9585
17.9718	63.8624	766.8793	67.5423	-254.6505	-40.0006	767.415	17.52	56.4745	7.6601	25.2299	-17.5009	73.5304	-0.0592	0.0182	-0.0073	-0.0462	0.0165	0.9585
17.9831	68.8627	757.4286	67.2247	-251.0495	-37.6144	752.7772	19.9164	98.8147	9.8612	43.9526	-21.1168	128.8317	-0.0592	0.0182	-0.0073	-0.0462	0.0165	0.9585
17.9945	73.5579	740.2087	65.9108	-244.9614	-34.4567	730.8378	19.0632	152.6599	11.484	67.6832	-22.4499	199.1734	-0.0592	0.0182	-0.0073	-0.0462	0.0165	0.9585
